<svg xmlns="http://www.w3.org/2000/svg" xmlns:xlink="http://www.w3.org/1999/xlink" width="500" zoomAndPan="magnify" viewBox="0 0 375 374.999991" height="500" preserveAspectRatio="xMidYMid meet" version="1.0"><defs><clipPath id="d56a8b2208"><path d="M 10.546875 0 L 364.546875 0 L 364.546875 375 L 10.546875 375 Z M 10.546875 0 " clip-rule="nonzero"/></clipPath><linearGradient x1="533.071247" gradientTransform="matrix(1, 0, 0, 1, 0.00000220836, -0.0000344462)" y1="408.290533" x2="625.058082" gradientUnits="userSpaceOnUse" y2="540.856034" id="57cf2f18be"><stop stop-opacity="1" stop-color="rgb(75.299072%, 75.299072%, 75.299072%)" offset="0"/><stop stop-opacity="1" stop-color="rgb(75.299072%, 75.299072%, 75.299072%)" offset="0.03125"/><stop stop-opacity="1" stop-color="rgb(75.108337%, 75.231934%, 75.227356%)" offset="0.046875"/><stop stop-opacity="1" stop-color="rgb(74.777222%, 75.115967%, 75.10376%)" offset="0.0546875"/><stop stop-opacity="1" stop-color="rgb(74.493408%, 75.016785%, 74.998474%)" offset="0.0625"/><stop stop-opacity="1" stop-color="rgb(74.211121%, 74.919128%, 74.893188%)" offset="0.0703125"/><stop stop-opacity="1" stop-color="rgb(73.927307%, 74.819946%, 74.786377%)" offset="0.078125"/><stop stop-opacity="1" stop-color="rgb(73.643494%, 74.720764%, 74.681091%)" offset="0.0859375"/><stop stop-opacity="1" stop-color="rgb(73.35968%, 74.621582%, 74.575806%)" offset="0.09375"/><stop stop-opacity="1" stop-color="rgb(73.075867%, 74.5224%, 74.47052%)" offset="0.101562"/><stop stop-opacity="1" stop-color="rgb(72.792053%, 74.423218%, 74.363708%)" offset="0.109375"/><stop stop-opacity="1" stop-color="rgb(72.50824%, 74.324036%, 74.258423%)" offset="0.117187"/><stop stop-opacity="1" stop-color="rgb(72.224426%, 74.224854%, 74.153137%)" offset="0.125"/><stop stop-opacity="1" stop-color="rgb(71.942139%, 74.125671%, 74.046326%)" offset="0.132812"/><stop stop-opacity="1" stop-color="rgb(71.658325%, 74.028015%, 73.94104%)" offset="0.140625"/><stop stop-opacity="1" stop-color="rgb(71.374512%, 73.928833%, 73.835754%)" offset="0.148438"/><stop stop-opacity="1" stop-color="rgb(71.090698%, 73.829651%, 73.730469%)" offset="0.15625"/><stop stop-opacity="1" stop-color="rgb(70.806885%, 73.730469%, 73.623657%)" offset="0.164062"/><stop stop-opacity="1" stop-color="rgb(70.523071%, 73.631287%, 73.518372%)" offset="0.171875"/><stop stop-opacity="1" stop-color="rgb(70.239258%, 73.532104%, 73.413086%)" offset="0.179688"/><stop stop-opacity="1" stop-color="rgb(69.955444%, 73.432922%, 73.306274%)" offset="0.1875"/><stop stop-opacity="1" stop-color="rgb(69.673157%, 73.33374%, 73.200989%)" offset="0.195312"/><stop stop-opacity="1" stop-color="rgb(69.389343%, 73.234558%, 73.095703%)" offset="0.203125"/><stop stop-opacity="1" stop-color="rgb(69.10553%, 73.136902%, 72.990417%)" offset="0.210938"/><stop stop-opacity="1" stop-color="rgb(68.821716%, 73.03772%, 72.883606%)" offset="0.21875"/><stop stop-opacity="1" stop-color="rgb(68.537903%, 72.938538%, 72.77832%)" offset="0.226562"/><stop stop-opacity="1" stop-color="rgb(68.254089%, 72.839355%, 72.673035%)" offset="0.234375"/><stop stop-opacity="1" stop-color="rgb(67.970276%, 72.740173%, 72.566223%)" offset="0.242188"/><stop stop-opacity="1" stop-color="rgb(67.687988%, 72.640991%, 72.460938%)" offset="0.25"/><stop stop-opacity="1" stop-color="rgb(67.404175%, 72.541809%, 72.355652%)" offset="0.257812"/><stop stop-opacity="1" stop-color="rgb(67.120361%, 72.442627%, 72.250366%)" offset="0.265625"/><stop stop-opacity="1" stop-color="rgb(66.836548%, 72.343445%, 72.143555%)" offset="0.273438"/><stop stop-opacity="1" stop-color="rgb(66.552734%, 72.245789%, 72.038269%)" offset="0.28125"/><stop stop-opacity="1" stop-color="rgb(66.268921%, 72.146606%, 71.932983%)" offset="0.289062"/><stop stop-opacity="1" stop-color="rgb(65.985107%, 72.047424%, 71.826172%)" offset="0.296875"/><stop stop-opacity="1" stop-color="rgb(65.701294%, 71.948242%, 71.720886%)" offset="0.304688"/><stop stop-opacity="1" stop-color="rgb(65.419006%, 71.84906%, 71.615601%)" offset="0.3125"/><stop stop-opacity="1" stop-color="rgb(65.135193%, 71.749878%, 71.510315%)" offset="0.320312"/><stop stop-opacity="1" stop-color="rgb(64.851379%, 71.650696%, 71.403503%)" offset="0.328125"/><stop stop-opacity="1" stop-color="rgb(64.567566%, 71.551514%, 71.298218%)" offset="0.335938"/><stop stop-opacity="1" stop-color="rgb(64.283752%, 71.452332%, 71.192932%)" offset="0.343208"/><stop stop-opacity="1" stop-color="rgb(64.141846%, 71.403503%, 71.139526%)" offset="0.34375"/><stop stop-opacity="1" stop-color="rgb(63.999939%, 71.354675%, 71.086121%)" offset="0.351562"/><stop stop-opacity="1" stop-color="rgb(63.716125%, 71.255493%, 70.980835%)" offset="0.359375"/><stop stop-opacity="1" stop-color="rgb(63.432312%, 71.156311%, 70.875549%)" offset="0.367188"/><stop stop-opacity="1" stop-color="rgb(63.150024%, 71.057129%, 70.768738%)" offset="0.375"/><stop stop-opacity="1" stop-color="rgb(62.866211%, 70.957947%, 70.663452%)" offset="0.382812"/><stop stop-opacity="1" stop-color="rgb(62.582397%, 70.858765%, 70.558167%)" offset="0.390625"/><stop stop-opacity="1" stop-color="rgb(62.298584%, 70.759583%, 70.452881%)" offset="0.398438"/><stop stop-opacity="1" stop-color="rgb(62.014771%, 70.6604%, 70.346069%)" offset="0.40625"/><stop stop-opacity="1" stop-color="rgb(61.730957%, 70.561218%, 70.240784%)" offset="0.414062"/><stop stop-opacity="1" stop-color="rgb(61.447144%, 70.463562%, 70.135498%)" offset="0.421875"/><stop stop-opacity="1" stop-color="rgb(61.16333%, 70.36438%, 70.028687%)" offset="0.429688"/><stop stop-opacity="1" stop-color="rgb(60.881042%, 70.265198%, 69.923401%)" offset="0.4375"/><stop stop-opacity="1" stop-color="rgb(60.597229%, 70.166016%, 69.818115%)" offset="0.445312"/><stop stop-opacity="1" stop-color="rgb(60.313416%, 70.066833%, 69.71283%)" offset="0.453125"/><stop stop-opacity="1" stop-color="rgb(60.029602%, 69.967651%, 69.606018%)" offset="0.460938"/><stop stop-opacity="1" stop-color="rgb(59.745789%, 69.868469%, 69.500732%)" offset="0.46875"/><stop stop-opacity="1" stop-color="rgb(59.461975%, 69.769287%, 69.395447%)" offset="0.476562"/><stop stop-opacity="1" stop-color="rgb(59.178162%, 69.670105%, 69.288635%)" offset="0.484375"/><stop stop-opacity="1" stop-color="rgb(58.895874%, 69.572449%, 69.18335%)" offset="0.492187"/><stop stop-opacity="1" stop-color="rgb(58.612061%, 69.473267%, 69.078064%)" offset="0.5"/><stop stop-opacity="1" stop-color="rgb(58.383179%, 69.290161%, 68.893433%)" offset="0.507812"/><stop stop-opacity="1" stop-color="rgb(58.227539%, 68.995667%, 68.603516%)" offset="0.515625"/><stop stop-opacity="1" stop-color="rgb(58.088684%, 68.673706%, 68.287659%)" offset="0.523437"/><stop stop-opacity="1" stop-color="rgb(57.951355%, 68.351746%, 67.973328%)" offset="0.53125"/><stop stop-opacity="1" stop-color="rgb(57.814026%, 68.028259%, 67.657471%)" offset="0.539062"/><stop stop-opacity="1" stop-color="rgb(57.676697%, 67.706299%, 67.341614%)" offset="0.546875"/><stop stop-opacity="1" stop-color="rgb(57.539368%, 67.384338%, 67.025757%)" offset="0.554687"/><stop stop-opacity="1" stop-color="rgb(57.400513%, 67.062378%, 66.711426%)" offset="0.5625"/><stop stop-opacity="1" stop-color="rgb(57.263184%, 66.740417%, 66.395569%)" offset="0.570312"/><stop stop-opacity="1" stop-color="rgb(57.125854%, 66.418457%, 66.079712%)" offset="0.578125"/><stop stop-opacity="1" stop-color="rgb(56.988525%, 66.094971%, 65.763855%)" offset="0.585937"/><stop stop-opacity="1" stop-color="rgb(56.851196%, 65.77301%, 65.449524%)" offset="0.59375"/><stop stop-opacity="1" stop-color="rgb(56.713867%, 65.45105%, 65.133667%)" offset="0.601562"/><stop stop-opacity="1" stop-color="rgb(56.575012%, 65.129089%, 64.81781%)" offset="0.609375"/><stop stop-opacity="1" stop-color="rgb(56.437683%, 64.807129%, 64.501953%)" offset="0.617188"/><stop stop-opacity="1" stop-color="rgb(56.300354%, 64.485168%, 64.187622%)" offset="0.625"/><stop stop-opacity="1" stop-color="rgb(56.163025%, 64.161682%, 63.871765%)" offset="0.632812"/><stop stop-opacity="1" stop-color="rgb(56.025696%, 63.839722%, 63.555908%)" offset="0.640625"/><stop stop-opacity="1" stop-color="rgb(55.886841%, 63.517761%, 63.240051%)" offset="0.648437"/><stop stop-opacity="1" stop-color="rgb(55.749512%, 63.195801%, 62.924194%)" offset="0.65625"/><stop stop-opacity="1" stop-color="rgb(55.612183%, 62.87384%, 62.609863%)" offset="0.656792"/><stop stop-opacity="1" stop-color="rgb(55.543518%, 62.713623%, 62.452698%)" offset="0.664062"/><stop stop-opacity="1" stop-color="rgb(55.474854%, 62.55188%, 62.294006%)" offset="0.671875"/><stop stop-opacity="1" stop-color="rgb(55.337524%, 62.228394%, 61.978149%)" offset="0.679687"/><stop stop-opacity="1" stop-color="rgb(55.200195%, 61.906433%, 61.662292%)" offset="0.6875"/><stop stop-opacity="1" stop-color="rgb(55.06134%, 61.584473%, 61.347961%)" offset="0.695312"/><stop stop-opacity="1" stop-color="rgb(54.924011%, 61.262512%, 61.032104%)" offset="0.703125"/><stop stop-opacity="1" stop-color="rgb(54.786682%, 60.940552%, 60.716248%)" offset="0.710937"/><stop stop-opacity="1" stop-color="rgb(54.649353%, 60.618591%, 60.400391%)" offset="0.71875"/><stop stop-opacity="1" stop-color="rgb(54.512024%, 60.295105%, 60.08606%)" offset="0.726562"/><stop stop-opacity="1" stop-color="rgb(54.373169%, 59.973145%, 59.770203%)" offset="0.734375"/><stop stop-opacity="1" stop-color="rgb(54.23584%, 59.651184%, 59.454346%)" offset="0.742188"/><stop stop-opacity="1" stop-color="rgb(54.098511%, 59.329224%, 59.138489%)" offset="0.75"/><stop stop-opacity="1" stop-color="rgb(53.961182%, 59.007263%, 58.822632%)" offset="0.757812"/><stop stop-opacity="1" stop-color="rgb(53.823853%, 58.685303%, 58.508301%)" offset="0.765625"/><stop stop-opacity="1" stop-color="rgb(53.684998%, 58.361816%, 58.192444%)" offset="0.773437"/><stop stop-opacity="1" stop-color="rgb(53.547668%, 58.039856%, 57.876587%)" offset="0.78125"/><stop stop-opacity="1" stop-color="rgb(53.410339%, 57.717896%, 57.56073%)" offset="0.789062"/><stop stop-opacity="1" stop-color="rgb(53.27301%, 57.395935%, 57.246399%)" offset="0.796875"/><stop stop-opacity="1" stop-color="rgb(53.135681%, 57.073975%, 56.930542%)" offset="0.804687"/><stop stop-opacity="1" stop-color="rgb(52.998352%, 56.752014%, 56.614685%)" offset="0.8125"/><stop stop-opacity="1" stop-color="rgb(52.859497%, 56.428528%, 56.298828%)" offset="0.820312"/><stop stop-opacity="1" stop-color="rgb(52.722168%, 56.106567%, 55.984497%)" offset="0.828125"/><stop stop-opacity="1" stop-color="rgb(52.584839%, 55.784607%, 55.66864%)" offset="0.835937"/><stop stop-opacity="1" stop-color="rgb(52.44751%, 55.462646%, 55.352783%)" offset="0.84375"/><stop stop-opacity="1" stop-color="rgb(52.310181%, 55.140686%, 55.036926%)" offset="0.851562"/><stop stop-opacity="1" stop-color="rgb(52.171326%, 54.818726%, 54.722595%)" offset="0.859375"/><stop stop-opacity="1" stop-color="rgb(52.033997%, 54.495239%, 54.406738%)" offset="0.867188"/><stop stop-opacity="1" stop-color="rgb(51.896667%, 54.173279%, 54.090881%)" offset="0.875"/><stop stop-opacity="1" stop-color="rgb(51.759338%, 53.851318%, 53.775024%)" offset="0.882812"/><stop stop-opacity="1" stop-color="rgb(51.622009%, 53.529358%, 53.459167%)" offset="0.890625"/><stop stop-opacity="1" stop-color="rgb(51.483154%, 53.207397%, 53.144836%)" offset="0.898437"/><stop stop-opacity="1" stop-color="rgb(51.345825%, 52.885437%, 52.828979%)" offset="0.90625"/><stop stop-opacity="1" stop-color="rgb(51.208496%, 52.561951%, 52.513123%)" offset="0.914062"/><stop stop-opacity="1" stop-color="rgb(51.071167%, 52.23999%, 52.197266%)" offset="0.921875"/><stop stop-opacity="1" stop-color="rgb(50.933838%, 51.91803%, 51.882935%)" offset="0.929687"/><stop stop-opacity="1" stop-color="rgb(50.796509%, 51.596069%, 51.567078%)" offset="0.9375"/><stop stop-opacity="1" stop-color="rgb(50.657654%, 51.274109%, 51.251221%)" offset="0.945312"/><stop stop-opacity="1" stop-color="rgb(50.520325%, 50.952148%, 50.935364%)" offset="0.953125"/><stop stop-opacity="1" stop-color="rgb(50.382996%, 50.628662%, 50.621033%)" offset="0.960937"/><stop stop-opacity="1" stop-color="rgb(50.256348%, 50.334167%, 50.331116%)" offset="0.96875"/><stop stop-opacity="1" stop-color="rgb(50.19989%, 50.19989%, 50.19989%)" offset="1"/></linearGradient><clipPath id="38ae3e0051"><path d="M 56.085938 81.203125 L 318.585938 81.203125 L 318.585938 343.703125 L 56.085938 343.703125 Z M 56.085938 81.203125 " clip-rule="nonzero"/></clipPath><clipPath id="48fc80a1a3"><path d="M 180 90.144531 L 223 90.144531 L 223 174 L 180 174 Z M 180 90.144531 " clip-rule="nonzero"/></clipPath></defs><g clip-path="url(#d56a8b2208)"><path fill="#336660" d="M 63.46875 -0.0078125 C 55.976562 -0.0078125 49.945312 6.019531 49.945312 13.507812 C 49.945312 13.664062 49.949219 13.820312 49.957031 13.976562 C 27.800781 16.035156 10.566406 34.558594 10.566406 57.265625 L 10.566406 331.515625 C 10.566406 355.605469 29.96875 375 54.066406 375 L 321.070312 375 C 345.167969 375 364.570312 355.605469 364.570312 331.515625 L 364.570312 57.265625 C 364.570312 33.171875 345.167969 13.777344 321.070312 13.777344 L 106.484375 13.777344 C 106.488281 13.6875 106.488281 13.597656 106.488281 13.507812 C 106.488281 6.019531 100.457031 -0.0078125 92.96875 -0.0078125 Z M 63.46875 -0.0078125 " fill-opacity="1" fill-rule="nonzero"/></g><path fill="#95b1b0" d="M 285.078125 200.222656 C 285.078125 201.800781 285.035156 203.375 284.957031 204.953125 C 284.878906 206.527344 284.761719 208.101562 284.605469 209.671875 C 284.449219 211.242188 284.253906 212.808594 284.015625 214.367188 C 283.78125 215.929688 283.507812 217.484375 283.195312 219.03125 C 282.882812 220.578125 282.53125 222.117188 282.144531 223.648438 C 281.753906 225.175781 281.328125 226.699219 280.863281 228.207031 C 280.398438 229.71875 279.894531 231.214844 279.355469 232.699219 C 278.816406 234.1875 278.242188 235.65625 277.628906 237.113281 C 277.015625 238.574219 276.367188 240.015625 275.679688 241.441406 C 274.996094 242.867188 274.277344 244.277344 273.523438 245.667969 C 272.765625 247.058594 271.976562 248.429688 271.15625 249.785156 C 270.332031 251.136719 269.476562 252.46875 268.585938 253.78125 C 267.695312 255.09375 266.773438 256.382812 265.820312 257.652344 C 264.867188 258.917969 263.878906 260.160156 262.863281 261.382812 C 261.847656 262.601562 260.804688 263.792969 259.726562 264.964844 C 258.652344 266.132812 257.546875 267.273438 256.417969 268.390625 C 255.285156 269.507812 254.125 270.59375 252.9375 271.652344 C 251.75 272.714844 250.539062 273.742188 249.300781 274.746094 C 248.0625 275.746094 246.800781 276.714844 245.515625 277.65625 C 244.226562 278.59375 242.917969 279.503906 241.589844 280.378906 C 240.257812 281.257812 238.902344 282.101562 237.53125 282.910156 C 236.15625 283.722656 234.765625 284.5 233.351562 285.242188 C 231.9375 285.988281 230.507812 286.695312 229.0625 287.371094 C 227.613281 288.046875 226.148438 288.683594 224.671875 289.289062 C 223.191406 289.890625 221.699219 290.460938 220.191406 290.992188 C 218.683594 291.523438 217.160156 292.019531 215.628906 292.476562 C 214.097656 292.933594 212.554688 293.355469 211 293.738281 C 209.445312 294.121094 207.886719 294.46875 206.3125 294.773438 C 204.742188 295.082031 203.167969 295.351562 201.582031 295.582031 C 200 295.816406 198.410156 296.007812 196.816406 296.164062 C 195.222656 296.316406 193.625 296.433594 192.027344 296.511719 C 190.425781 296.589844 188.824219 296.628906 187.222656 296.628906 C 185.621094 296.628906 184.023438 296.589844 182.421875 296.511719 C 180.824219 296.433594 179.226562 296.316406 177.632812 296.164062 C 176.039062 296.007812 174.449219 295.816406 172.867188 295.582031 C 171.28125 295.351562 169.703125 295.082031 168.132812 294.773438 C 166.5625 294.46875 165 294.121094 163.449219 293.738281 C 161.894531 293.355469 160.351562 292.933594 158.820312 292.476562 C 157.285156 292.019531 155.765625 291.523438 154.257812 290.992188 C 152.75 290.460938 151.257812 289.890625 149.777344 289.289062 C 148.296875 288.683594 146.835938 288.046875 145.386719 287.371094 C 143.941406 286.695312 142.507812 285.988281 141.097656 285.242188 C 139.683594 284.5 138.292969 283.722656 136.917969 282.910156 C 135.542969 282.101562 134.191406 281.257812 132.859375 280.378906 C 131.527344 279.503906 130.21875 278.59375 128.933594 277.65625 C 127.648438 276.714844 126.386719 275.746094 125.148438 274.746094 C 123.910156 273.742188 122.699219 272.714844 121.511719 271.652344 C 120.324219 270.59375 119.164062 269.507812 118.03125 268.390625 C 116.898438 267.273438 115.796875 266.132812 114.722656 264.964844 C 113.644531 263.792969 112.601562 262.601562 111.582031 261.382812 C 110.566406 260.160156 109.582031 258.917969 108.628906 257.652344 C 107.675781 256.382812 106.753906 255.09375 105.863281 253.78125 C 104.972656 252.46875 104.117188 251.136719 103.292969 249.785156 C 102.46875 248.429688 101.679688 247.058594 100.925781 245.667969 C 100.171875 244.277344 99.453125 242.867188 98.765625 241.441406 C 98.082031 240.015625 97.433594 238.574219 96.820312 237.113281 C 96.207031 235.65625 95.632812 234.1875 95.09375 232.699219 C 94.554688 231.214844 94.050781 229.71875 93.585938 228.207031 C 93.121094 226.699219 92.695312 225.175781 92.304688 223.648438 C 91.914062 222.117188 91.566406 220.578125 91.253906 219.03125 C 90.941406 217.484375 90.667969 215.929688 90.429688 214.367188 C 90.195312 212.808594 90 211.242188 89.84375 209.671875 C 89.6875 208.101562 89.570312 206.527344 89.488281 204.953125 C 89.410156 203.375 89.371094 201.800781 89.371094 200.222656 C 89.371094 198.644531 89.410156 197.066406 89.488281 195.492188 C 89.570312 193.917969 89.6875 192.34375 89.84375 190.773438 C 90 189.203125 90.195312 187.636719 90.429688 186.078125 C 90.667969 184.515625 90.941406 182.960938 91.253906 181.414062 C 91.566406 179.867188 91.914062 178.328125 92.304688 176.796875 C 92.695312 175.265625 93.121094 173.746094 93.585938 172.238281 C 94.050781 170.726562 94.554688 169.230469 95.09375 167.746094 C 95.632812 166.257812 96.207031 164.789062 96.820312 163.328125 C 97.433594 161.871094 98.082031 160.429688 98.765625 159.003906 C 99.453125 157.578125 100.171875 156.167969 100.925781 154.777344 C 101.679688 153.386719 102.46875 152.011719 103.292969 150.660156 C 104.117188 149.308594 104.972656 147.972656 105.863281 146.664062 C 106.753906 145.351562 107.675781 144.0625 108.628906 142.792969 C 109.582031 141.527344 110.566406 140.285156 111.582031 139.0625 C 112.601562 137.84375 113.644531 136.648438 114.722656 135.480469 C 115.796875 134.3125 116.898438 133.167969 118.03125 132.054688 C 119.164062 130.9375 120.324219 129.851562 121.511719 128.789062 C 122.699219 127.730469 123.910156 126.703125 125.148438 125.699219 C 126.386719 124.699219 127.648438 123.730469 128.933594 122.789062 C 130.21875 121.847656 131.527344 120.941406 132.859375 120.066406 C 134.191406 119.1875 135.542969 118.34375 136.917969 117.53125 C 138.292969 116.722656 139.683594 115.945312 141.097656 115.199219 C 142.507812 114.457031 143.941406 113.746094 145.386719 113.074219 C 146.835938 112.398438 148.296875 111.757812 149.777344 111.15625 C 151.257812 110.550781 152.75 109.984375 154.257812 109.453125 C 155.765625 108.921875 157.285156 108.425781 158.820312 107.96875 C 160.351562 107.511719 161.894531 107.089844 163.449219 106.707031 C 165 106.324219 166.5625 105.976562 168.132812 105.667969 C 169.703125 105.363281 171.28125 105.09375 172.867188 104.859375 C 174.449219 104.628906 176.039062 104.4375 177.632812 104.28125 C 179.226562 104.128906 180.824219 104.011719 182.421875 103.933594 C 184.023438 103.855469 185.621094 103.816406 187.222656 103.816406 C 188.824219 103.816406 190.425781 103.855469 192.027344 103.933594 C 193.625 104.011719 195.222656 104.128906 196.816406 104.28125 C 198.410156 104.4375 200 104.628906 201.582031 104.859375 C 203.167969 105.09375 204.742188 105.363281 206.3125 105.667969 C 207.886719 105.976562 209.445312 106.324219 211 106.707031 C 212.554688 107.089844 214.097656 107.511719 215.628906 107.96875 C 217.160156 108.425781 218.683594 108.921875 220.191406 109.453125 C 221.699219 109.984375 223.191406 110.550781 224.671875 111.15625 C 226.148438 111.757812 227.613281 112.398438 229.0625 113.074219 C 230.507812 113.746094 231.9375 114.457031 233.351562 115.199219 C 234.765625 115.945312 236.15625 116.722656 237.53125 117.53125 C 238.902344 118.34375 240.257812 119.1875 241.589844 120.066406 C 242.917969 120.941406 244.226562 121.847656 245.515625 122.789062 C 246.800781 123.730469 248.0625 124.699219 249.300781 125.699219 C 250.539062 126.703125 251.75 127.730469 252.9375 128.789062 C 254.125 129.851562 255.285156 130.9375 256.417969 132.054688 C 257.546875 133.167969 258.652344 134.3125 259.726562 135.480469 C 260.804688 136.648438 261.847656 137.84375 262.863281 139.0625 C 263.878906 140.285156 264.867188 141.527344 265.820312 142.792969 C 266.773438 144.0625 267.695312 145.351562 268.585938 146.664062 C 269.476562 147.972656 270.332031 149.308594 271.15625 150.660156 C 271.976562 152.011719 272.765625 153.386719 273.523438 154.777344 C 274.277344 156.167969 274.996094 157.578125 275.679688 159.003906 C 276.367188 160.429688 277.015625 161.871094 277.628906 163.328125 C 278.242188 164.789062 278.816406 166.257812 279.355469 167.746094 C 279.894531 169.230469 280.398438 170.726562 280.863281 172.238281 C 281.328125 173.746094 281.753906 175.265625 282.144531 176.796875 C 282.53125 178.328125 282.882812 179.867188 283.195312 181.414062 C 283.507812 182.960938 283.78125 184.515625 284.015625 186.078125 C 284.253906 187.636719 284.449219 189.203125 284.605469 190.773438 C 284.761719 192.34375 284.878906 193.917969 284.957031 195.492188 C 285.035156 197.066406 285.078125 198.644531 285.078125 200.222656 Z M 285.078125 200.222656 " fill-opacity="1" fill-rule="nonzero"/><path fill="#ffffff" d="M 261.460938 200.222656 C 261.460938 201.417969 261.429688 202.617188 261.371094 203.8125 C 261.3125 205.007812 261.222656 206.199219 261.105469 207.390625 C 260.984375 208.582031 260.835938 209.769531 260.65625 210.953125 C 260.480469 212.136719 260.273438 213.316406 260.035156 214.492188 C 259.796875 215.664062 259.53125 216.832031 259.238281 217.992188 C 258.941406 219.15625 258.617188 220.308594 258.265625 221.453125 C 257.910156 222.597656 257.53125 223.734375 257.121094 224.863281 C 256.710938 225.988281 256.273438 227.105469 255.808594 228.210938 C 255.34375 229.316406 254.851562 230.410156 254.332031 231.492188 C 253.8125 232.574219 253.269531 233.644531 252.695312 234.699219 C 252.121094 235.753906 251.523438 236.796875 250.898438 237.824219 C 250.273438 238.851562 249.625 239.859375 248.949219 240.855469 C 248.273438 241.851562 247.574219 242.828125 246.851562 243.792969 C 246.128906 244.753906 245.382812 245.695312 244.609375 246.621094 C 243.839844 247.546875 243.046875 248.453125 242.230469 249.339844 C 241.414062 250.226562 240.578125 251.09375 239.71875 251.9375 C 238.859375 252.785156 237.980469 253.609375 237.078125 254.414062 C 236.179688 255.21875 235.257812 256 234.320312 256.757812 C 233.378906 257.519531 232.421875 258.253906 231.445312 258.96875 C 230.472656 259.679688 229.476562 260.371094 228.46875 261.035156 C 227.457031 261.699219 226.433594 262.339844 225.390625 262.957031 C 224.347656 263.570312 223.289062 264.160156 222.21875 264.726562 C 221.148438 265.289062 220.0625 265.828125 218.964844 266.339844 C 217.867188 266.851562 216.757812 267.335938 215.632812 267.792969 C 214.511719 268.253906 213.378906 268.683594 212.234375 269.085938 C 211.089844 269.488281 209.9375 269.863281 208.773438 270.210938 C 207.613281 270.558594 206.441406 270.878906 205.261719 271.167969 C 204.082031 271.460938 202.898438 271.722656 201.707031 271.957031 C 200.515625 272.191406 199.320312 272.394531 198.117188 272.570312 C 196.914062 272.746094 195.710938 272.890625 194.5 273.007812 C 193.292969 273.125 192.082031 273.214844 190.867188 273.273438 C 189.652344 273.332031 188.4375 273.359375 187.222656 273.363281 C 186.007812 273.359375 184.796875 273.332031 183.582031 273.273438 C 182.367188 273.214844 181.15625 273.125 179.949219 273.007812 C 178.738281 272.890625 177.535156 272.746094 176.332031 272.570312 C 175.128906 272.394531 173.933594 272.191406 172.742188 271.957031 C 171.550781 271.722656 170.363281 271.460938 169.1875 271.167969 C 168.007812 270.878906 166.835938 270.558594 165.675781 270.210938 C 164.511719 269.863281 163.359375 269.488281 162.214844 269.085938 C 161.070312 268.683594 159.9375 268.253906 158.816406 267.792969 C 157.691406 267.335938 156.582031 266.851562 155.484375 266.339844 C 154.386719 265.828125 153.300781 265.289062 152.230469 264.726562 C 151.15625 264.160156 150.101562 263.570312 149.058594 262.957031 C 148.015625 262.339844 146.992188 261.699219 145.980469 261.035156 C 144.96875 260.371094 143.976562 259.679688 143 258.96875 C 142.027344 258.253906 141.066406 257.519531 140.128906 256.757812 C 139.191406 256 138.269531 255.21875 137.371094 254.414062 C 136.46875 253.609375 135.589844 252.785156 134.730469 251.9375 C 133.871094 251.09375 133.035156 250.226562 132.21875 249.339844 C 131.402344 248.453125 130.609375 247.546875 129.839844 246.621094 C 129.066406 245.695312 128.320312 244.753906 127.597656 243.792969 C 126.871094 242.828125 126.171875 241.851562 125.5 240.855469 C 124.824219 239.859375 124.175781 238.851562 123.550781 237.824219 C 122.925781 236.796875 122.324219 235.753906 121.753906 234.699219 C 121.179688 233.644531 120.632812 232.574219 120.113281 231.492188 C 119.59375 230.410156 119.101562 229.316406 118.636719 228.210938 C 118.171875 227.105469 117.738281 225.988281 117.328125 224.863281 C 116.917969 223.734375 116.535156 222.597656 116.183594 221.453125 C 115.832031 220.308594 115.507812 219.15625 115.210938 217.992188 C 114.917969 216.832031 114.652344 215.664062 114.414062 214.492188 C 114.175781 213.316406 113.96875 212.136719 113.789062 210.953125 C 113.613281 209.769531 113.464844 208.582031 113.34375 207.390625 C 113.226562 206.199219 113.136719 205.007812 113.078125 203.8125 C 113.015625 202.617188 112.988281 201.417969 112.988281 200.222656 C 112.988281 199.023438 113.015625 197.828125 113.078125 196.632812 C 113.136719 195.4375 113.226562 194.246094 113.34375 193.054688 C 113.464844 191.863281 113.613281 190.675781 113.789062 189.492188 C 113.96875 188.304688 114.175781 187.128906 114.414062 185.953125 C 114.652344 184.78125 114.917969 183.613281 115.210938 182.449219 C 115.507812 181.289062 115.832031 180.136719 116.183594 178.992188 C 116.535156 177.84375 116.917969 176.710938 117.328125 175.582031 C 117.738281 174.457031 118.171875 173.339844 118.636719 172.234375 C 119.101562 171.128906 119.59375 170.035156 120.113281 168.953125 C 120.632812 167.871094 121.179688 166.800781 121.753906 165.746094 C 122.324219 164.6875 122.925781 163.648438 123.550781 162.621094 C 124.175781 161.59375 124.824219 160.582031 125.5 159.589844 C 126.171875 158.59375 126.871094 157.613281 127.597656 156.652344 C 128.320312 155.691406 129.066406 154.75 129.839844 153.824219 C 130.609375 152.898438 131.402344 151.992188 132.21875 151.105469 C 133.035156 150.21875 133.871094 149.351562 134.730469 148.503906 C 135.589844 147.660156 136.46875 146.832031 137.371094 146.03125 C 138.269531 145.226562 139.191406 144.445312 140.128906 143.683594 C 141.066406 142.925781 142.027344 142.191406 143 141.476562 C 143.976562 140.761719 144.96875 140.074219 145.980469 139.410156 C 146.992188 138.746094 148.015625 138.105469 149.058594 137.488281 C 150.101562 136.875 151.15625 136.285156 152.230469 135.71875 C 153.300781 135.15625 154.386719 134.617188 155.484375 134.105469 C 156.582031 133.59375 157.691406 133.109375 158.816406 132.652344 C 159.9375 132.191406 161.070312 131.761719 162.214844 131.359375 C 163.359375 130.957031 164.511719 130.578125 165.675781 130.234375 C 166.835938 129.886719 168.007812 129.566406 169.1875 129.273438 C 170.363281 128.984375 171.550781 128.722656 172.742188 128.488281 C 173.933594 128.253906 175.128906 128.050781 176.332031 127.875 C 177.535156 127.699219 178.738281 127.554688 179.949219 127.433594 C 181.15625 127.316406 182.367188 127.230469 183.582031 127.171875 C 184.796875 127.113281 186.007812 127.082031 187.222656 127.082031 C 188.4375 127.082031 189.652344 127.113281 190.867188 127.171875 C 192.082031 127.230469 193.292969 127.316406 194.5 127.433594 C 195.710938 127.554688 196.914062 127.699219 198.117188 127.875 C 199.320312 128.050781 200.515625 128.253906 201.707031 128.488281 C 202.898438 128.722656 204.082031 128.984375 205.261719 129.273438 C 206.441406 129.566406 207.613281 129.886719 208.773438 130.234375 C 209.9375 130.578125 211.089844 130.957031 212.234375 131.359375 C 213.378906 131.761719 214.511719 132.191406 215.632812 132.652344 C 216.757812 133.109375 217.867188 133.59375 218.964844 134.105469 C 220.0625 134.617188 221.148438 135.15625 222.21875 135.71875 C 223.289062 136.285156 224.347656 136.875 225.390625 137.488281 C 226.433594 138.105469 227.457031 138.746094 228.46875 139.410156 C 229.476562 140.074219 230.472656 140.761719 231.445312 141.476562 C 232.421875 142.191406 233.378906 142.925781 234.320312 143.683594 C 235.257812 144.445312 236.179688 145.226562 237.078125 146.03125 C 237.980469 146.832031 238.859375 147.660156 239.71875 148.503906 C 240.578125 149.351562 241.414062 150.21875 242.230469 151.105469 C 243.046875 151.992188 243.839844 152.898438 244.609375 153.824219 C 245.382812 154.75 246.128906 155.691406 246.851562 156.652344 C 247.574219 157.613281 248.273438 158.59375 248.949219 159.589844 C 249.625 160.582031 250.273438 161.59375 250.898438 162.621094 C 251.523438 163.648438 252.121094 164.6875 252.695312 165.746094 C 253.269531 166.800781 253.8125 167.871094 254.332031 168.953125 C 254.851562 170.035156 255.34375 171.128906 255.808594 172.234375 C 256.273438 173.339844 256.710938 174.457031 257.121094 175.582031 C 257.53125 176.710938 257.910156 177.84375 258.265625 178.992188 C 258.617188 180.136719 258.941406 181.289062 259.238281 182.449219 C 259.53125 183.613281 259.796875 184.78125 260.035156 185.953125 C 260.273438 187.128906 260.480469 188.304688 260.65625 189.492188 C 260.835938 190.675781 260.984375 191.863281 261.105469 193.054688 C 261.222656 194.246094 261.3125 195.4375 261.371094 196.632812 C 261.429688 197.828125 261.460938 199.023438 261.460938 200.222656 Z M 261.460938 200.222656 " fill-opacity="1" fill-rule="nonzero"/><path fill="#95b1b0" d="M 332.136719 77.804688 C 332.136719 78.8125 332.085938 79.820312 331.984375 80.824219 C 331.882812 81.828125 331.734375 82.824219 331.535156 83.8125 C 331.335938 84.800781 331.085938 85.78125 330.789062 86.746094 C 330.492188 87.710938 330.148438 88.660156 329.753906 89.589844 C 329.363281 90.523438 328.925781 91.433594 328.445312 92.320312 C 327.960938 93.210938 327.4375 94.074219 326.867188 94.914062 C 326.296875 95.753906 325.6875 96.5625 325.039062 97.34375 C 324.390625 98.121094 323.703125 98.867188 322.980469 99.582031 C 322.257812 100.292969 321.5 100.972656 320.707031 101.609375 C 319.914062 102.25 319.09375 102.851562 318.242188 103.410156 C 317.390625 103.972656 316.515625 104.488281 315.613281 104.964844 C 314.710938 105.441406 313.785156 105.871094 312.839844 106.257812 C 311.894531 106.644531 310.929688 106.980469 309.949219 107.273438 C 308.972656 107.566406 307.980469 107.8125 306.976562 108.007812 C 305.972656 108.207031 304.960938 108.355469 303.941406 108.453125 C 302.921875 108.550781 301.902344 108.601562 300.878906 108.601562 C 299.851562 108.601562 298.832031 108.550781 297.8125 108.453125 C 296.792969 108.355469 295.78125 108.207031 294.777344 108.007812 C 293.773438 107.8125 292.78125 107.566406 291.804688 107.273438 C 290.824219 106.980469 289.859375 106.644531 288.914062 106.257812 C 287.96875 105.871094 287.046875 105.441406 286.140625 104.964844 C 285.238281 104.488281 284.363281 103.972656 283.511719 103.410156 C 282.660156 102.851562 281.839844 102.25 281.046875 101.609375 C 280.257812 100.972656 279.5 100.292969 278.773438 99.582031 C 278.050781 98.867188 277.363281 98.121094 276.714844 97.34375 C 276.066406 96.5625 275.457031 95.753906 274.886719 94.914062 C 274.320312 94.074219 273.792969 93.210938 273.308594 92.320312 C 272.828125 91.433594 272.390625 90.523438 272 89.589844 C 271.605469 88.660156 271.261719 87.710938 270.964844 86.746094 C 270.667969 85.78125 270.417969 84.800781 270.21875 83.8125 C 270.019531 82.824219 269.871094 81.828125 269.769531 80.824219 C 269.667969 79.820312 269.621094 78.8125 269.621094 77.804688 C 269.621094 76.796875 269.667969 75.789062 269.769531 74.785156 C 269.871094 73.78125 270.019531 72.785156 270.21875 71.796875 C 270.417969 70.808594 270.667969 69.832031 270.964844 68.867188 C 271.261719 67.902344 271.605469 66.953125 272 66.019531 C 272.390625 65.089844 272.828125 64.179688 273.308594 63.289062 C 273.792969 62.398438 274.320312 61.535156 274.886719 60.695312 C 275.457031 59.859375 276.066406 59.046875 276.714844 58.269531 C 277.363281 57.488281 278.050781 56.742188 278.773438 56.03125 C 279.5 55.316406 280.257812 54.640625 281.046875 54 C 281.839844 53.359375 282.660156 52.761719 283.511719 52.199219 C 284.363281 51.640625 285.238281 51.121094 286.140625 50.644531 C 287.046875 50.171875 287.96875 49.738281 288.914062 49.355469 C 289.859375 48.96875 290.824219 48.628906 291.804688 48.335938 C 292.78125 48.042969 293.773438 47.796875 294.777344 47.601562 C 295.78125 47.40625 296.792969 47.257812 297.8125 47.15625 C 298.832031 47.058594 299.851562 47.007812 300.878906 47.007812 C 301.902344 47.007812 302.921875 47.058594 303.941406 47.15625 C 304.960938 47.257812 305.972656 47.40625 306.976562 47.601562 C 307.980469 47.796875 308.972656 48.042969 309.949219 48.335938 C 310.929688 48.628906 311.894531 48.96875 312.839844 49.355469 C 313.785156 49.738281 314.710938 50.171875 315.613281 50.644531 C 316.515625 51.121094 317.390625 51.640625 318.242188 52.199219 C 319.09375 52.761719 319.914062 53.359375 320.707031 54 C 321.5 54.640625 322.257812 55.316406 322.980469 56.03125 C 323.703125 56.742188 324.390625 57.488281 325.039062 58.269531 C 325.6875 59.046875 326.296875 59.859375 326.867188 60.695312 C 327.4375 61.535156 327.960938 62.398438 328.445312 63.289062 C 328.925781 64.179688 329.363281 65.089844 329.753906 66.019531 C 330.148438 66.953125 330.492188 67.902344 330.789062 68.867188 C 331.085938 69.832031 331.335938 70.808594 331.535156 71.796875 C 331.734375 72.785156 331.882812 73.78125 331.984375 74.785156 C 332.085938 75.789062 332.136719 76.796875 332.136719 77.804688 Z M 332.136719 77.804688 " fill-opacity="1" fill-rule="nonzero"/><path stroke-linecap="round" transform="matrix(0.460075, 0, 0, 0.459953, -36.095699, -44.247513)" fill="none" stroke-linejoin="round" d="M 537.976758 418.184086 C 567.192431 425.717119 592.791167 446.277968 606.443827 473.18287 C 615.520128 491.05153 619.408759 511.518959 617.532368 531.476826 " stroke="url(#57cf2f18be)" stroke-width="15.7" stroke-miterlimit="4"/><g clip-path="url(#38ae3e0051)"><path fill="#ffffff" d="M 318.585938 212.453125 C 318.585938 214.601562 318.53125 216.75 318.425781 218.894531 C 318.320312 221.039062 318.164062 223.179688 317.953125 225.320312 C 317.742188 227.457031 317.480469 229.585938 317.164062 231.710938 C 316.847656 233.835938 316.480469 235.953125 316.0625 238.058594 C 315.644531 240.167969 315.171875 242.261719 314.652344 244.34375 C 314.128906 246.429688 313.558594 248.5 312.933594 250.554688 C 312.308594 252.609375 311.636719 254.648438 310.914062 256.671875 C 310.1875 258.695312 309.417969 260.695312 308.59375 262.679688 C 307.773438 264.664062 306.902344 266.628906 305.984375 268.570312 C 305.066406 270.511719 304.101562 272.429688 303.085938 274.324219 C 302.074219 276.21875 301.015625 278.085938 299.910156 279.929688 C 298.808594 281.773438 297.660156 283.585938 296.464844 285.371094 C 295.273438 287.160156 294.035156 288.914062 292.757812 290.640625 C 291.476562 292.363281 290.15625 294.058594 288.792969 295.71875 C 287.429688 297.378906 286.027344 299.003906 284.585938 300.597656 C 283.140625 302.1875 281.660156 303.742188 280.144531 305.261719 C 278.625 306.78125 277.070312 308.261719 275.476562 309.703125 C 273.886719 311.148438 272.261719 312.550781 270.597656 313.910156 C 268.9375 315.273438 267.246094 316.59375 265.519531 317.875 C 263.796875 319.15625 262.039062 320.390625 260.253906 321.585938 C 258.46875 322.777344 256.652344 323.925781 254.8125 325.03125 C 252.96875 326.136719 251.101562 327.195312 249.207031 328.207031 C 247.3125 329.21875 245.394531 330.183594 243.453125 331.101562 C 241.511719 332.019531 239.546875 332.890625 237.5625 333.714844 C 235.578125 334.535156 233.574219 335.308594 231.550781 336.03125 C 229.53125 336.753906 227.492188 337.429688 225.433594 338.050781 C 223.378906 338.675781 221.308594 339.25 219.226562 339.769531 C 217.144531 340.292969 215.046875 340.761719 212.941406 341.183594 C 210.835938 341.601562 208.71875 341.96875 206.59375 342.285156 C 204.46875 342.597656 202.335938 342.863281 200.199219 343.070312 C 198.0625 343.28125 195.921875 343.441406 193.777344 343.546875 C 191.628906 343.652344 189.484375 343.703125 187.335938 343.703125 C 185.1875 343.703125 183.039062 343.652344 180.894531 343.546875 C 178.75 343.441406 176.609375 343.28125 174.46875 343.070312 C 172.332031 342.863281 170.203125 342.597656 168.078125 342.285156 C 165.953125 341.96875 163.835938 341.601562 161.730469 341.183594 C 159.621094 340.761719 157.527344 340.292969 155.445312 339.769531 C 153.359375 339.25 151.289062 338.675781 149.234375 338.050781 C 147.179688 337.429688 145.140625 336.753906 143.117188 336.03125 C 141.097656 335.308594 139.09375 334.535156 137.109375 333.714844 C 135.125 332.890625 133.160156 332.019531 131.21875 331.101562 C 129.277344 330.183594 127.359375 329.21875 125.464844 328.207031 C 123.570312 327.195312 121.703125 326.136719 119.859375 325.03125 C 118.015625 323.925781 116.203125 322.777344 114.417969 321.585938 C 112.628906 320.390625 110.875 319.15625 109.148438 317.875 C 107.425781 316.59375 105.730469 315.273438 104.070312 313.910156 C 102.410156 312.550781 100.785156 311.148438 99.191406 309.703125 C 97.601562 308.261719 96.046875 306.78125 94.527344 305.261719 C 93.007812 303.742188 91.527344 302.1875 90.085938 300.597656 C 88.644531 299.003906 87.242188 297.378906 85.878906 295.71875 C 84.515625 294.058594 83.195312 292.363281 81.914062 290.640625 C 80.632812 288.914062 79.398438 287.160156 78.203125 285.371094 C 77.011719 283.585938 75.863281 281.773438 74.757812 279.929688 C 73.652344 278.085938 72.59375 276.21875 71.582031 274.324219 C 70.570312 272.429688 69.605469 270.511719 68.6875 268.570312 C 67.769531 266.628906 66.898438 264.664062 66.074219 262.679688 C 65.253906 260.695312 64.480469 258.695312 63.757812 256.671875 C 63.035156 254.648438 62.359375 252.609375 61.738281 250.554688 C 61.113281 248.5 60.539062 246.429688 60.019531 244.34375 C 59.496094 242.261719 59.027344 240.167969 58.605469 238.058594 C 58.1875 235.953125 57.820312 233.835938 57.503906 231.710938 C 57.191406 229.585938 56.929688 227.457031 56.71875 225.320312 C 56.507812 223.179688 56.347656 221.039062 56.242188 218.894531 C 56.136719 216.75 56.085938 214.601562 56.085938 212.453125 C 56.085938 210.304688 56.136719 208.160156 56.242188 206.015625 C 56.347656 203.867188 56.507812 201.726562 56.71875 199.589844 C 56.929688 197.453125 57.191406 195.320312 57.503906 193.195312 C 57.820312 191.070312 58.1875 188.957031 58.605469 186.847656 C 59.027344 184.742188 59.496094 182.648438 60.019531 180.5625 C 60.539062 178.480469 61.113281 176.410156 61.738281 174.355469 C 62.359375 172.300781 63.035156 170.261719 63.757812 168.238281 C 64.480469 166.214844 65.253906 164.210938 66.074219 162.226562 C 66.898438 160.242188 67.769531 158.28125 68.6875 156.335938 C 69.605469 154.394531 70.570312 152.476562 71.582031 150.582031 C 72.59375 148.6875 73.652344 146.820312 74.757812 144.976562 C 75.863281 143.136719 77.011719 141.320312 78.203125 139.535156 C 79.398438 137.75 80.632812 135.992188 81.914062 134.269531 C 83.195312 132.542969 84.515625 130.851562 85.878906 129.191406 C 87.242188 127.53125 88.644531 125.902344 90.085938 124.3125 C 91.527344 122.71875 93.007812 121.164062 94.527344 119.644531 C 96.046875 118.128906 97.601562 116.648438 99.191406 115.203125 C 100.785156 113.761719 102.410156 112.359375 104.070312 110.996094 C 105.730469 109.632812 107.425781 108.3125 109.148438 107.035156 C 110.875 105.753906 112.628906 104.515625 114.417969 103.324219 C 116.203125 102.128906 118.015625 100.980469 119.859375 99.878906 C 121.703125 98.773438 123.570312 97.714844 125.464844 96.703125 C 127.359375 95.691406 129.277344 94.722656 131.21875 93.804688 C 133.160156 92.886719 135.125 92.015625 137.109375 91.195312 C 139.09375 90.375 141.097656 89.601562 143.117188 88.875 C 145.140625 88.152344 147.179688 87.480469 149.234375 86.855469 C 151.289062 86.230469 153.359375 85.660156 155.445312 85.136719 C 157.527344 84.617188 159.621094 84.144531 161.730469 83.726562 C 163.835938 83.308594 165.953125 82.941406 168.078125 82.625 C 170.203125 82.308594 172.332031 82.046875 174.46875 81.835938 C 176.609375 81.625 178.75 81.46875 180.894531 81.363281 C 183.039062 81.257812 185.1875 81.203125 187.335938 81.203125 C 189.484375 81.203125 191.628906 81.257812 193.773438 81.363281 C 195.921875 81.46875 198.0625 81.625 200.199219 81.835938 C 202.335938 82.046875 204.46875 82.308594 206.59375 82.625 C 208.71875 82.941406 210.835938 83.308594 212.941406 83.726562 C 215.046875 84.144531 217.144531 84.617188 219.226562 85.136719 C 221.308594 85.660156 223.378906 86.230469 225.433594 86.855469 C 227.492188 87.480469 229.53125 88.152344 231.550781 88.875 C 233.574219 89.601562 235.578125 90.375 237.5625 91.195312 C 239.546875 92.015625 241.511719 92.886719 243.453125 93.804688 C 245.394531 94.722656 247.3125 95.691406 249.207031 96.703125 C 251.101562 97.714844 252.96875 98.773438 254.8125 99.878906 C 256.652344 100.980469 258.46875 102.128906 260.253906 103.324219 C 262.039062 104.515625 263.796875 105.753906 265.519531 107.035156 C 267.246094 108.3125 268.9375 109.632812 270.597656 110.996094 C 272.261719 112.359375 273.886719 113.761719 275.476562 115.203125 C 277.070312 116.648438 278.625 118.128906 280.144531 119.644531 C 281.660156 121.164062 283.140625 122.71875 284.585938 124.3125 C 286.027344 125.902344 287.429688 127.53125 288.792969 129.191406 C 290.15625 130.851562 291.476562 132.542969 292.757812 134.269531 C 294.035156 135.992188 295.273438 137.75 296.464844 139.535156 C 297.660156 141.320312 298.808594 143.136719 299.910156 144.976562 C 301.015625 146.820312 302.074219 148.6875 303.085938 150.582031 C 304.101562 152.476562 305.066406 154.394531 305.984375 156.335938 C 306.902344 158.28125 307.773438 160.242188 308.59375 162.226562 C 309.417969 164.210938 310.1875 166.214844 310.914062 168.238281 C 311.636719 170.261719 312.308594 172.300781 312.933594 174.355469 C 313.558594 176.410156 314.128906 178.480469 314.652344 180.5625 C 315.171875 182.648438 315.644531 184.742188 316.0625 186.847656 C 316.480469 188.957031 316.847656 191.070312 317.164062 193.195312 C 317.480469 195.320312 317.742188 197.453125 317.953125 199.589844 C 318.164062 201.726562 318.320312 203.867188 318.425781 206.015625 C 318.53125 208.160156 318.585938 210.304688 318.585938 212.453125 Z M 318.585938 212.453125 " fill-opacity="1" fill-rule="nonzero"/><path fill="#95b1b0" d="M 318.585938 212.453125 C 318.585938 214.601562 318.53125 216.75 318.425781 218.894531 C 318.320312 221.039062 318.164062 223.179688 317.953125 225.320312 C 317.742188 227.457031 317.480469 229.585938 317.164062 231.710938 C 316.847656 233.835938 316.480469 235.953125 316.0625 238.058594 C 315.644531 240.167969 315.171875 242.261719 314.652344 244.34375 C 314.128906 246.429688 313.558594 248.5 312.933594 250.554688 C 312.308594 252.609375 311.636719 254.648438 310.914062 256.671875 C 310.1875 258.695312 309.417969 260.695312 308.59375 262.679688 C 307.773438 264.664062 306.902344 266.628906 305.984375 268.570312 C 305.066406 270.511719 304.101562 272.429688 303.085938 274.324219 C 302.074219 276.21875 301.015625 278.085938 299.910156 279.929688 C 298.808594 281.773438 297.660156 283.585938 296.464844 285.371094 C 295.273438 287.160156 294.035156 288.914062 292.757812 290.640625 C 291.476562 292.363281 290.15625 294.058594 288.792969 295.71875 C 287.429688 297.378906 286.027344 299.003906 284.585938 300.597656 C 283.140625 302.1875 281.660156 303.742188 280.144531 305.261719 C 278.625 306.78125 277.070312 308.261719 275.476562 309.703125 C 273.886719 311.148438 272.261719 312.550781 270.597656 313.910156 C 268.9375 315.273438 267.246094 316.59375 265.519531 317.875 C 263.796875 319.15625 262.039062 320.390625 260.253906 321.585938 C 258.46875 322.777344 256.652344 323.925781 254.8125 325.03125 C 252.96875 326.136719 251.101562 327.195312 249.207031 328.207031 C 247.3125 329.21875 245.394531 330.183594 243.453125 331.101562 C 241.511719 332.019531 239.546875 332.890625 237.5625 333.714844 C 235.578125 334.535156 233.574219 335.308594 231.550781 336.03125 C 229.53125 336.753906 227.492188 337.429688 225.433594 338.050781 C 223.378906 338.675781 221.308594 339.25 219.226562 339.769531 C 217.144531 340.292969 215.046875 340.761719 212.941406 341.183594 C 210.835938 341.601562 208.71875 341.96875 206.59375 342.285156 C 204.46875 342.597656 202.335938 342.863281 200.199219 343.070312 C 198.0625 343.28125 195.921875 343.441406 193.777344 343.546875 C 191.628906 343.652344 189.484375 343.703125 187.335938 343.703125 C 185.1875 343.703125 183.039062 343.652344 180.894531 343.546875 C 178.75 343.441406 176.609375 343.28125 174.46875 343.070312 C 172.332031 342.863281 170.203125 342.597656 168.078125 342.285156 C 165.953125 341.96875 163.835938 341.601562 161.730469 341.183594 C 159.621094 340.761719 157.527344 340.292969 155.445312 339.769531 C 153.359375 339.25 151.289062 338.675781 149.234375 338.050781 C 147.179688 337.429688 145.140625 336.753906 143.117188 336.03125 C 141.097656 335.308594 139.09375 334.535156 137.109375 333.714844 C 135.125 332.890625 133.160156 332.019531 131.21875 331.101562 C 129.277344 330.183594 127.359375 329.21875 125.464844 328.207031 C 123.570312 327.195312 121.703125 326.136719 119.859375 325.03125 C 118.015625 323.925781 116.203125 322.777344 114.417969 321.585938 C 112.628906 320.390625 110.875 319.15625 109.148438 317.875 C 107.425781 316.59375 105.730469 315.273438 104.070312 313.910156 C 102.410156 312.550781 100.785156 311.148438 99.191406 309.703125 C 97.601562 308.261719 96.046875 306.78125 94.527344 305.261719 C 93.007812 303.742188 91.527344 302.1875 90.085938 300.597656 C 88.644531 299.003906 87.242188 297.378906 85.878906 295.71875 C 84.515625 294.058594 83.195312 292.363281 81.914062 290.640625 C 80.632812 288.914062 79.398438 287.160156 78.203125 285.371094 C 77.011719 283.585938 75.863281 281.773438 74.757812 279.929688 C 73.652344 278.085938 72.59375 276.21875 71.582031 274.324219 C 70.570312 272.429688 69.605469 270.511719 68.6875 268.570312 C 67.769531 266.628906 66.898438 264.664062 66.074219 262.679688 C 65.253906 260.695312 64.480469 258.695312 63.757812 256.671875 C 63.035156 254.648438 62.359375 252.609375 61.738281 250.554688 C 61.113281 248.5 60.539062 246.429688 60.019531 244.34375 C 59.496094 242.261719 59.027344 240.167969 58.605469 238.058594 C 58.1875 235.953125 57.820312 233.835938 57.503906 231.710938 C 57.191406 229.585938 56.929688 227.457031 56.71875 225.320312 C 56.507812 223.179688 56.347656 221.039062 56.242188 218.894531 C 56.136719 216.75 56.085938 214.601562 56.085938 212.453125 C 56.085938 210.304688 56.136719 208.160156 56.242188 206.015625 C 56.347656 203.867188 56.507812 201.726562 56.71875 199.589844 C 56.929688 197.453125 57.191406 195.320312 57.503906 193.195312 C 57.820312 191.070312 58.1875 188.957031 58.605469 186.847656 C 59.027344 184.742188 59.496094 182.648438 60.019531 180.5625 C 60.539062 178.480469 61.113281 176.410156 61.738281 174.355469 C 62.359375 172.300781 63.035156 170.261719 63.757812 168.238281 C 64.480469 166.214844 65.253906 164.210938 66.074219 162.226562 C 66.898438 160.242188 67.769531 158.28125 68.6875 156.335938 C 69.605469 154.394531 70.570312 152.476562 71.582031 150.582031 C 72.59375 148.6875 73.652344 146.820312 74.757812 144.976562 C 75.863281 143.136719 77.011719 141.320312 78.203125 139.535156 C 79.398438 137.75 80.632812 135.992188 81.914062 134.269531 C 83.195312 132.542969 84.515625 130.851562 85.878906 129.191406 C 87.242188 127.53125 88.644531 125.902344 90.085938 124.3125 C 91.527344 122.71875 93.007812 121.164062 94.527344 119.644531 C 96.046875 118.128906 97.601562 116.648438 99.191406 115.203125 C 100.785156 113.761719 102.410156 112.359375 104.070312 110.996094 C 105.730469 109.632812 107.425781 108.3125 109.148438 107.035156 C 110.875 105.753906 112.628906 104.515625 114.417969 103.324219 C 116.203125 102.128906 118.015625 100.980469 119.859375 99.878906 C 121.703125 98.773438 123.570312 97.714844 125.464844 96.703125 C 127.359375 95.691406 129.277344 94.722656 131.21875 93.804688 C 133.160156 92.886719 135.125 92.015625 137.109375 91.195312 C 139.09375 90.375 141.097656 89.601562 143.117188 88.875 C 145.140625 88.152344 147.179688 87.480469 149.234375 86.855469 C 151.289062 86.230469 153.359375 85.660156 155.445312 85.136719 C 157.527344 84.617188 159.621094 84.144531 161.730469 83.726562 C 163.835938 83.308594 165.953125 82.941406 168.078125 82.625 C 170.203125 82.308594 172.332031 82.046875 174.46875 81.835938 C 176.609375 81.625 178.75 81.46875 180.894531 81.363281 C 183.039062 81.257812 185.1875 81.203125 187.335938 81.203125 C 189.484375 81.203125 191.628906 81.257812 193.773438 81.363281 C 195.921875 81.46875 198.0625 81.625 200.199219 81.835938 C 202.335938 82.046875 204.46875 82.308594 206.59375 82.625 C 208.71875 82.941406 210.835938 83.308594 212.941406 83.726562 C 215.046875 84.144531 217.144531 84.617188 219.226562 85.136719 C 221.308594 85.660156 223.378906 86.230469 225.433594 86.855469 C 227.492188 87.480469 229.53125 88.152344 231.550781 88.875 C 233.574219 89.601562 235.578125 90.375 237.5625 91.195312 C 239.546875 92.015625 241.511719 92.886719 243.453125 93.804688 C 245.394531 94.722656 247.3125 95.691406 249.207031 96.703125 C 251.101562 97.714844 252.96875 98.773438 254.8125 99.878906 C 256.652344 100.980469 258.46875 102.128906 260.253906 103.324219 C 262.039062 104.515625 263.796875 105.753906 265.519531 107.035156 C 267.246094 108.3125 268.9375 109.632812 270.597656 110.996094 C 272.261719 112.359375 273.886719 113.761719 275.476562 115.203125 C 277.070312 116.648438 278.625 118.128906 280.144531 119.644531 C 281.660156 121.164062 283.140625 122.71875 284.585938 124.3125 C 286.027344 125.902344 287.429688 127.53125 288.792969 129.191406 C 290.15625 130.851562 291.476562 132.542969 292.757812 134.269531 C 294.035156 135.992188 295.273438 137.75 296.464844 139.535156 C 297.660156 141.320312 298.808594 143.136719 299.910156 144.976562 C 301.015625 146.820312 302.074219 148.6875 303.085938 150.582031 C 304.101562 152.476562 305.066406 154.394531 305.984375 156.335938 C 306.902344 158.28125 307.773438 160.242188 308.59375 162.226562 C 309.417969 164.210938 310.1875 166.214844 310.914062 168.238281 C 311.636719 170.261719 312.308594 172.300781 312.933594 174.355469 C 313.558594 176.410156 314.128906 178.480469 314.652344 180.5625 C 315.171875 182.648438 315.644531 184.742188 316.0625 186.847656 C 316.480469 188.957031 316.847656 191.070312 317.164062 193.195312 C 317.480469 195.320312 317.742188 197.453125 317.953125 199.589844 C 318.164062 201.726562 318.320312 203.867188 318.425781 206.015625 C 318.53125 208.160156 318.585938 210.304688 318.585938 212.453125 Z M 318.585938 212.453125 " fill-opacity="1" fill-rule="nonzero"/></g><g clip-path="url(#48fc80a1a3)"><path fill="#a55062" d="M 222.941406 108.667969 C 222.761719 110.070312 221.96875 111.40625 220.609375 112.246094 C 199.742188 125.03125 193.414062 157.832031 191.773438 169.539062 C 191.609375 170.765625 191.007812 171.8125 190.132812 172.570312 C 189.261719 173.339844 188.121094 173.78125 186.894531 173.78125 C 186.644531 173.78125 186.40625 173.765625 186.167969 173.722656 C 183.933594 173.402344 182.175781 171.566406 181.96875 169.273438 C 177.457031 119.386719 189.464844 99.269531 195.484375 92.484375 C 197.113281 90.636719 199.816406 90.265625 201.875 91.609375 L 220.773438 103.878906 C 222.480469 104.988281 223.195312 106.878906 222.941406 108.667969 Z M 222.941406 108.667969 " fill-opacity="1" fill-rule="nonzero"/><path fill="#a55062" d="M 222.941406 108.667969 C 215.769531 105.609375 187.644531 98.484375 186.167969 173.71875 C 183.933594 173.394531 182.175781 171.558594 181.96875 169.269531 C 177.457031 119.386719 189.464844 99.269531 195.484375 92.484375 C 197.113281 90.636719 199.816406 90.265625 201.875 91.609375 L 220.773438 103.878906 C 222.480469 104.988281 223.195312 106.878906 222.941406 108.667969 Z M 222.941406 108.667969 " fill-opacity="1" fill-rule="nonzero"/></g><path fill="#de3c4b" d="M 281.167969 258.316406 C 268.097656 295.671875 237.195312 328.007812 187.851562 328.957031 C 187.851562 328.957031 187.527344 328.972656 187.363281 328.972656 C 187.214844 328.972656 186.894531 328.957031 186.894531 328.957031 C 80.476562 326.933594 59.820312 178.730469 118.84375 149.554688 C 134.105469 142.027344 154.671875 142.429688 180.460938 155.363281 C 184.808594 157.550781 189.9375 157.550781 194.285156 155.363281 C 273.613281 115.601562 303.585938 194.285156 281.167969 258.316406 Z M 281.167969 258.316406 " fill-opacity="1" fill-rule="nonzero"/><path fill="#de3c4b" d="M 281.167969 258.316406 C 268.097656 295.671875 237.195312 328.007812 187.851562 328.957031 C 187.851562 328.957031 187.527344 328.972656 187.363281 328.972656 C 187.214844 328.972656 186.894531 328.957031 186.894531 328.957031 C 80.476562 326.933594 59.820312 178.730469 118.84375 149.554688 L 118.878906 149.570312 C 118.878906 149.570312 101.871094 362.246094 281.167969 258.316406 Z M 281.167969 258.316406 " fill-opacity="1" fill-rule="nonzero"/><path fill="#f25c54" d="M 267.964844 166.335938 C 268.46875 166.925781 268.957031 167.527344 269.433594 168.132812 C 269.910156 168.742188 270.367188 169.355469 270.808594 169.976562 C 271.253906 170.597656 271.679688 171.222656 272.085938 171.851562 C 272.492188 172.476562 272.875 173.105469 273.242188 173.734375 C 273.609375 174.363281 273.953125 174.988281 274.273438 175.613281 C 274.597656 176.238281 274.894531 176.855469 275.167969 177.46875 C 275.445312 178.078125 275.695312 178.683594 275.917969 179.277344 C 276.144531 179.871094 276.34375 180.457031 276.515625 181.027344 C 276.691406 181.601562 276.835938 182.160156 276.957031 182.703125 C 277.078125 183.246094 277.167969 183.773438 277.234375 184.285156 C 277.296875 184.792969 277.335938 185.285156 277.34375 185.757812 C 277.355469 186.230469 277.335938 186.679688 277.292969 187.109375 C 277.246094 187.535156 277.171875 187.941406 277.070312 188.324219 C 276.96875 188.703125 276.84375 189.0625 276.6875 189.390625 C 276.53125 189.722656 276.351562 190.027344 276.144531 190.304688 C 275.9375 190.578125 275.703125 190.828125 275.445312 191.046875 C 275.1875 191.265625 274.90625 191.457031 274.601562 191.621094 C 274.292969 191.78125 273.964844 191.910156 273.613281 192.011719 C 273.265625 192.113281 272.890625 192.183594 272.5 192.222656 C 272.105469 192.261719 271.695312 192.269531 271.265625 192.246094 C 270.832031 192.226562 270.386719 192.171875 269.921875 192.089844 C 269.457031 192.003906 268.976562 191.890625 268.484375 191.746094 C 267.988281 191.601562 267.484375 191.425781 266.964844 191.222656 C 266.445312 191.019531 265.917969 190.785156 265.378906 190.523438 C 264.84375 190.265625 264.296875 189.976562 263.746094 189.660156 C 263.191406 189.34375 262.636719 189 262.074219 188.632812 C 261.511719 188.265625 260.949219 187.875 260.386719 187.457031 C 259.820312 187.042969 259.253906 186.601562 258.691406 186.144531 C 258.128906 185.683594 257.570312 185.203125 257.011719 184.703125 C 256.457031 184.203125 255.90625 183.683594 255.363281 183.148438 C 254.820312 182.613281 254.285156 182.0625 253.757812 181.5 C 253.234375 180.933594 252.71875 180.355469 252.214844 179.769531 C 251.714844 179.179688 251.226562 178.578125 250.75 177.972656 C 250.273438 177.363281 249.816406 176.75 249.371094 176.128906 C 248.929688 175.507812 248.503906 174.882812 248.097656 174.253906 C 247.691406 173.628906 247.304688 173 246.941406 172.371094 C 246.574219 171.742188 246.230469 171.117188 245.90625 170.492188 C 245.585938 169.867188 245.289062 169.25 245.011719 168.636719 C 244.738281 168.027344 244.488281 167.421875 244.261719 166.828125 C 244.039062 166.234375 243.839844 165.648438 243.664062 165.078125 C 243.492188 164.503906 243.34375 163.945312 243.226562 163.402344 C 243.105469 162.859375 243.015625 162.332031 242.949219 161.820312 C 242.882812 161.3125 242.847656 160.820312 242.835938 160.347656 C 242.828125 159.875 242.84375 159.425781 242.890625 158.996094 C 242.9375 158.570312 243.011719 158.164062 243.113281 157.78125 C 243.210938 157.402344 243.339844 157.042969 243.496094 156.714844 C 243.648438 156.382812 243.832031 156.078125 244.039062 155.800781 C 244.246094 155.527344 244.476562 155.277344 244.734375 155.058594 C 244.992188 154.835938 245.277344 154.648438 245.582031 154.484375 C 245.886719 154.324219 246.214844 154.195312 246.566406 154.09375 C 246.917969 153.992188 247.289062 153.921875 247.683594 153.882812 C 248.074219 153.84375 248.488281 153.835938 248.917969 153.859375 C 249.347656 153.878906 249.796875 153.933594 250.261719 154.015625 C 250.726562 154.101562 251.203125 154.214844 251.699219 154.359375 C 252.191406 154.503906 252.699219 154.679688 253.21875 154.882812 C 253.734375 155.085938 254.265625 155.320312 254.800781 155.582031 C 255.339844 155.839844 255.886719 156.128906 256.4375 156.445312 C 256.988281 156.761719 257.546875 157.105469 258.109375 157.472656 C 258.667969 157.839844 259.234375 158.230469 259.796875 158.648438 C 260.363281 159.0625 260.925781 159.503906 261.492188 159.960938 C 262.054688 160.421875 262.613281 160.902344 263.167969 161.402344 C 263.726562 161.902344 264.273438 162.421875 264.820312 162.957031 C 265.363281 163.492188 265.898438 164.042969 266.421875 164.605469 C 266.949219 165.171875 267.464844 165.75 267.964844 166.335938 Z M 267.964844 166.335938 " fill-opacity="1" fill-rule="nonzero"/><path fill="#f25c54" d="M 257.878906 197.277344 C 258.414062 197.71875 258.925781 198.175781 259.414062 198.652344 C 259.902344 199.128906 260.359375 199.613281 260.785156 200.105469 C 261.207031 200.597656 261.589844 201.089844 261.929688 201.582031 C 262.273438 202.074219 262.566406 202.554688 262.816406 203.027344 C 263.0625 203.496094 263.257812 203.945312 263.402344 204.378906 C 263.542969 204.8125 263.632812 205.214844 263.664062 205.589844 C 263.699219 205.96875 263.675781 206.308594 263.601562 206.613281 C 263.523438 206.921875 263.390625 207.1875 263.207031 207.410156 C 263.019531 207.636719 262.785156 207.816406 262.5 207.949219 C 262.214844 208.085938 261.882812 208.171875 261.507812 208.210938 C 261.128906 208.25 260.71875 208.242188 260.265625 208.183594 C 259.816406 208.125 259.335938 208.019531 258.824219 207.867188 C 258.316406 207.714844 257.789062 207.515625 257.238281 207.273438 C 256.691406 207.035156 256.136719 206.753906 255.570312 206.429688 C 255.003906 206.109375 254.441406 205.753906 253.882812 205.367188 C 253.320312 204.980469 252.773438 204.5625 252.238281 204.125 C 251.703125 203.683594 251.191406 203.226562 250.703125 202.75 C 250.214844 202.273438 249.757812 201.789062 249.335938 201.292969 C 248.910156 200.800781 248.527344 200.308594 248.1875 199.816406 C 247.84375 199.328125 247.550781 198.847656 247.304688 198.375 C 247.054688 197.90625 246.859375 197.453125 246.71875 197.023438 C 246.574219 196.589844 246.484375 196.1875 246.453125 195.808594 C 246.417969 195.433594 246.441406 195.09375 246.519531 194.785156 C 246.59375 194.480469 246.726562 194.214844 246.910156 193.988281 C 247.097656 193.765625 247.332031 193.585938 247.617188 193.449219 C 247.90625 193.316406 248.234375 193.230469 248.613281 193.191406 C 248.988281 193.152344 249.402344 193.160156 249.851562 193.21875 C 250.304688 193.277344 250.785156 193.382812 251.292969 193.535156 C 251.800781 193.6875 252.332031 193.882812 252.878906 194.125 C 253.425781 194.367188 253.984375 194.648438 254.546875 194.96875 C 255.113281 195.292969 255.675781 195.644531 256.238281 196.035156 C 256.796875 196.421875 257.34375 196.835938 257.878906 197.277344 Z M 257.878906 197.277344 " fill-opacity="1" fill-rule="nonzero"/></svg>